<svg xmlns="http://www.w3.org/2000/svg" width="32" height="32" viewBox="0 0 32 32" fill="none">
  <path d="M12.3364 14.1613H19.6728M12.3364 17.8295H19.6728M6.53936 21.6121C5.17211 19.3072 4.69329 16.5825 5.1928 13.9496C5.69232 11.3167 7.13581 8.95675 9.25222 7.31282C11.3686 5.66889 14.0124 4.85412 16.687 5.02149C19.3617 5.18886 21.8832 6.32687 23.7782 8.22181C25.6731 10.1168 26.8111 12.6383 26.9785 15.3129C27.1459 17.9876 26.3311 20.6313 24.6872 22.7477C23.0433 24.8642 20.6833 26.3077 18.0504 26.8072C15.4175 27.3067 12.6928 26.8279 10.388 25.4607L6.5872 26.5465C6.42995 26.5914 6.26355 26.5935 6.10523 26.5525C5.94692 26.5114 5.80246 26.4288 5.68681 26.3132C5.57117 26.1975 5.48856 26.0531 5.44753 25.8948C5.40651 25.7364 5.40857 25.57 5.4535 25.4128L6.53936 21.6121Z" stroke="#FCFBF6" stroke-linecap="round" stroke-linejoin="round"/>
</svg>