<svg xmlns="http://www.w3.org/2000/svg" width="32" height="32" viewBox="0 0 32 32" fill="none">
  <path d="M4.03604 22V22.5H4.4719L4.53136 22.0682L4.03604 22ZM11.6306 22L11.1353 22.0682L11.1948 22.5H11.6306V22ZM11.6667 22V22.5H12.1667V22H11.6667ZM11.6667 7.83333H11.1667H11.6667ZM29 10.5C29.2761 10.5 29.5 10.2761 29.5 10C29.5 9.72386 29.2761 9.5 29 9.5V10.5ZM25 13.5C24.7239 13.5 24.5 13.7239 24.5 14C24.5 14.2761 24.7239 14.5 25 14.5V13.5ZM29 14.5C29.2761 14.5 29.5 14.2761 29.5 14C29.5 13.7239 29.2761 13.5 29 13.5V14.5ZM25 17.5C24.7239 17.5 24.5 17.7239 24.5 18C24.5 18.2761 24.7239 18.5 25 18.5V17.5ZM29 18.5C29.2761 18.5 29.5 18.2761 29.5 18C29.5 17.7239 29.2761 17.5 29 17.5V18.5ZM25 21.5C24.7239 21.5 24.5 21.7239 24.5 22C24.5 22.2761 24.7239 22.5 25 22.5V21.5ZM29 22.5C29.2761 22.5 29.5 22.2761 29.5 22C29.5 21.7239 29.2761 21.5 29 21.5V22.5ZM29 26.5C29.2761 26.5 29.5 26.2761 29.5 26C29.5 25.7239 29.2761 25.5 29 25.5V26.5ZM24.5 10V26H25.5V10H24.5ZM25 25.5H8V26.5H25V25.5ZM4.5 22V10H3.5V22H4.5ZM8 25.5C6.067 25.5 4.5 23.933 4.5 22H3.5C3.5 24.4853 5.51472 26.5 8 26.5V25.5ZM4.5 7.83333C4.5 5.99238 5.99238 4.5 7.83333 4.5V3.5C5.4401 3.5 3.5 5.4401 3.5 7.83333H4.5ZM4.5 22V7.83333H3.5V22H4.5ZM4.03604 21.5H4V22.5H4.03604V21.5ZM4.53136 22.0682C4.7549 20.4449 6.1485 19.1944 7.83333 19.1944V18.1944C5.6421 18.1944 3.83146 19.8204 3.54071 21.9318L4.53136 22.0682ZM7.83333 19.1944C9.51816 19.1944 10.9118 20.4449 11.1353 22.0682L12.126 21.9318C11.8352 19.8204 10.0246 18.1944 7.83333 18.1944V19.1944ZM11.6667 21.5H11.6306V22.5H11.6667V21.5ZM11.1667 7.83333L11.1667 22H12.1667L12.1667 7.83333H11.1667ZM7.83333 4.5C9.67428 4.5 11.1667 5.99238 11.1667 7.83333H12.1667C12.1667 5.4401 10.2266 3.5 7.83333 3.5V4.5ZM25 10.5H29V9.5H25V10.5ZM25 14.5H29V13.5H25V14.5ZM25 18.5H29V17.5H25V18.5ZM25 22.5H29V21.5H25V22.5ZM25 26.5H29V25.5H25V26.5ZM11.5 10.5H25V9.5H11.5V10.5Z" fill="#FCFBF6"/>
</svg>