<svg xmlns="http://www.w3.org/2000/svg" width="32" height="32" viewBox="0 0 32 32" fill="none">
<path d="M5 18.6091L5.71148 18.221C8.69625 16.593 12.3037 16.593 15.2885 18.221L16 18.6091L16.7115 18.9972C19.6963 20.6253 23.3037 20.6253 26.2885 18.9972L27 18.6091M5 22.6091L5.71148 22.221C8.69625 20.593 12.3037 20.593 15.2885 22.221L16 22.6091L16.7115 22.9972C19.6963 24.6253 23.3037 24.6253 26.2885 22.9972L27 22.6091M5 10.6091L5.71148 10.221C8.69625 8.59299 12.3037 8.59299 15.2885 10.221L16 10.6091L16.7115 10.9972C19.6963 12.6253 23.3037 12.6253 26.2885 10.9972L27 10.6091M5 14.6091L5.71148 14.221C8.69625 12.593 12.3037 12.593 15.2885 14.221L16 14.6091L16.7115 14.9972C19.6963 16.6253 23.3037 16.6253 26.2885 14.9972L27 14.6091" stroke="#FCFBF6" stroke-linecap="round"/>
</svg>