<svg width="32" height="32" viewBox="0 0 32 32" fill="none" xmlns="http://www.w3.org/2000/svg">
<path d="M3 7.25H10.6667L11.6667 3.75H20.3333L21.3333 7.25H29V26.25H3V7.25Z" stroke="#FCFBF6"/>
<path d="M22 16.5C22 19.8137 19.3137 22.5 16 22.5C12.6863 22.5 10 19.8137 10 16.5C10 13.1863 12.6863 10.5 16 10.5C19.3137 10.5 22 13.1863 22 16.5Z" stroke="#FCFBF6"/>
<path d="M26.5 10C26.5 10.2761 26.2761 10.5 26 10.5C25.7239 10.5 25.5 10.2761 25.5 10C25.5 9.72386 25.7239 9.5 26 9.5C26.2761 9.5 26.5 9.72386 26.5 10Z" stroke="#FCFBF6"/>
</svg>
