<svg xmlns="http://www.w3.org/2000/svg" width="32" height="32" viewBox="0 0 32 32" fill="none">
  <path d="M25 17.9324C23.4937 18.2779 21.9244 18.2352 20.4392 17.8082C18.954 17.3812 17.6016 16.5839 16.5088 15.4912C15.4161 14.3984 14.6188 13.046 14.1918 11.5608C13.7648 10.0756 13.7221 8.50628 14.0676 7.00003C12.4818 7.36583 11.0227 8.14944 9.84206 9.26953C8.66141 10.3896 7.80211 11.8053 7.35339 13.3697C6.90467 14.934 6.88288 16.59 7.29028 18.1656C7.69769 19.7412 8.51943 21.179 9.6702 22.3298C10.821 23.4806 12.2588 24.3023 13.8344 24.7097C15.41 25.1171 17.066 25.0953 18.6303 24.6466C20.1947 24.1979 21.6104 23.3386 22.7305 22.158C23.8506 20.9773 24.6342 19.5182 25 17.9324Z" stroke="#FCFBF6" stroke-linecap="round" stroke-linejoin="round"/>
</svg>